PathFileType	4	(X/Y/Z)	c:/Users/goper/Files/vsCode/490R/osim_files/C03/C03_SSW_06.trc
DataRate	CameraRate	NumFrames	NumMarkers	Units                	OrigDataRate	OrigDataStartFrame	OrigNumFrames
250.00	250.00	10	36	mm	250.0	1755	2339
                Frame#	Time	LPSIS			LASIS			LTH1			LTH2			LTH3			LTH4			LLFE			LMFE			LSH1			LSH2			LSH3			LSH4			LLMAL			LMMAL			LCAL			LMTP5			LTOE			LMTP1			RPSIS			RASIS			RTH1			RTH2			RTH3			RTH4			RLFE			RMFE			RSH1			RSH2			RSH3			RSH4			RLMAL			RMMAL			RCAL			RMTP1			RTOE			RMTP5		
		X1	Y1	Z1	X2	Y2	Z2	X3	Y3	Z3	X4	Y4	Z4	X5	Y5	Z5	X6	Y6	Z6	X7	Y7	Z7	X8	Y8	Z8	X9	Y9	Z9	X10	Y10	Z10	X11	Y11	Z11	X12	Y12	Z12	X13	Y13	Z13	X14	Y14	Z14	X15	Y15	Z15	X16	Y16	Z16	X17	Y17	Z17	X18	Y18	Z18	X19	Y19	Z19	X20	Y20	Z20	X21	Y21	Z21	X22	Y22	Z22	X23	Y23	Z23	X24	Y24	Z24	X25	Y25	Z25	X26	Y26	Z26	X27	Y27	Z27	X28	Y28	Z28	X29	Y29	Z29	X30	Y30	Z30	X31	Y31	Z31	X32	Y32	Z32	X33	Y33	Z33	X34	Y34	Z34	X35	Y35	Z35	X36	Y36	Z36

1755	7.01600	-1826.51038	993.44574	282.18182	-2007.34497	942.59259	285.64490	-2003.14172	586.80725	343.83765	-2030.15698	531.62451	335.26770	-2073.88721	614.92310	342.97220	-2091.11621	556.29254	333.74969	-2089.69580	470.50745	320.69131	-2083.12793	462.75299	207.17140	-2111.59473	280.17697	325.80725	-2136.74756	241.07080	321.53571	-2164.25952	310.92773	331.73303	-2182.67920	266.44650	326.99591	-2250.23535	115.07010	299.38205	-2261.16675	137.75630	222.43626	-2210.61401	51.62416	262.83997	-2396.08960	129.43071	317.92242	-2409.12524	165.71471	265.91904	-2397.37842	141.51485	225.39619	-1814.32544	995.81250	172.48358	-1973.11255	951.49463	80.37838	-1744.30017	617.86273	96.94056	-1726.68323	559.91052	112.30583	-1798.70386	597.84338	67.26278	-1788.81482	537.02069	75.73641	-1763.43213	468.13223	97.73740	-1770.19714	489.37994	209.38298	-1604.69653	334.28070	99.99310	-1588.18542	290.37103	104.26636	-1658.66492	304.18683	90.38313	-1634.50049	268.35538	95.00002	-1563.89294	131.40555	125.53342	-1575.94775	129.74005	205.61790	-1482.48621	109.72232	158.73802	-1677.24548	48.06554	200.12186	-1706.32727	55.14115	162.02843	-1649.25269	39.21347	96.65235
1756	7.02000	-1833.16907	992.61414	282.88278	-2013.78821	942.12048	286.21890	-2010.01025	586.66669	344.23120	-2036.97351	531.50232	335.28561	-2080.68945	614.82355	343.15427	-2098.03467	556.31500	333.60635	-2095.99487	469.84482	320.87164	-2089.46313	462.44180	207.55327	-2115.41260	278.89148	326.20364	-2139.98535	239.59087	321.38370	-2168.38794	309.09753	332.05496	-2186.21362	264.40344	327.34537	-2251.68604	112.30333	299.63571	-2262.82495	134.67992	222.54306	-2211.65381	51.45251	263.04871	-2398.46460	124.12753	317.49890	-2411.83325	161.22873	265.52759	-2399.94238	137.31702	225.01917	-1820.51697	995.05536	172.75833	-1979.66565	950.79608	80.78578	-1750.61536	617.42206	97.18867	-1733.23621	559.15417	112.95815	-1805.49329	597.22449	67.92789	-1795.42505	536.39758	76.11043	-1768.93604	467.77240	96.79523	-1776.64941	488.47263	209.43265	-1609.02405	335.52884	100.06417	-1592.04749	291.76978	104.22793	-1662.43799	304.86331	90.15731	-1637.96301	269.27887	94.81200	-1565.36755	133.20753	125.18753	-1577.63989	131.36240	205.33844	-1483.64905	111.85922	158.69276	-1677.53296	48.18055	200.06905	-1706.74426	54.75399	161.99590	-1649.46460	39.41113	96.62921
1757	7.02400	-1839.76843	991.97693	283.23892	-2020.96948	942.10718	286.64920	-2016.94690	586.57465	344.67966	-2043.93262	531.33350	335.25729	-2087.54346	614.79938	343.32501	-2104.93652	556.30878	333.50797	-2102.17871	469.06973	321.00388	-2095.82080	462.16223	207.93805	-2118.96997	277.67719	326.90753	-2143.00586	238.30107	322.37119	-2172.28052	307.20068	332.38956	-2189.92578	262.33295	327.88721	-2253.30127	109.53358	299.93951	-2264.55615	131.84688	222.63770	-2212.81787	51.13204	263.07373	-2400.86865	119.96658	317.17365	-2414.43481	157.04256	265.18936	-2402.35205	133.12415	224.73114	-1827.01855	994.26648	173.01363	-1986.33582	949.99286	81.26695	-1757.16553	616.85730	97.74464	-1739.52734	558.56348	113.78926	-1811.94312	596.59119	68.18191	-1801.77478	535.80890	76.26796	-1775.06738	467.09766	96.88273	-1783.24463	487.53012	209.44810	-1613.72729	336.66956	100.25784	-1595.98596	293.16147	104.14658	-1666.45959	305.53690	89.98205	-1641.53552	270.17560	94.66183	-1567.16357	134.96477	124.87739	-1579.59668	132.96233	205.01981	-1484.96338	113.94401	158.62566	-1677.82385	48.30854	200.08496	-1707.18115	54.32904	161.97939	-1649.68555	39.61831	96.57415
1758	7.02800	-1846.04663	991.80774	283.01657	-2027.48181	941.52771	287.53046	-2023.95349	586.51703	344.93320	-2050.86401	531.30768	335.30154	-2094.50659	614.73175	343.45889	-2111.83936	556.21783	333.40427	-2108.21924	468.30295	321.12036	-2102.13916	461.81937	208.38664	-2122.19922	276.41324	327.18707	-2145.86206	236.47775	322.79788	-2176.02661	305.31628	332.62180	-2192.66211	260.06061	327.85324	-2255.14136	107.32153	300.13605	-2266.44702	129.41190	222.69914	-2214.25098	50.96128	263.04782	-2403.22363	115.98395	316.79053	-2417.60815	152.89542	264.77371	-2404.27832	129.33365	224.22563	-1833.82507	993.47003	173.28316	-1993.70764	949.38843	81.75977	-1763.80054	616.21881	98.08852	-1746.36267	557.60736	114.31172	-1818.56177	595.98120	68.43806	-1808.33984	535.08325	76.42257	-1781.46460	466.37872	96.96042	-1789.99072	486.54822	209.41054	-1618.37000	337.96255	100.17884	-1600.06433	294.63153	104.07533	-1670.71057	306.21875	89.81093	-1645.33203	271.15189	94.48233	-1568.96875	136.89264	124.56160	-1581.55737	134.68228	204.62411	-1486.07861	116.22917	158.52373	-1677.79541	48.17218	200.56326	-1707.52466	53.91985	161.92102	-1649.93799	39.84367	96.55167
1759	7.03200	-1852.71460	991.28912	283.31104	-2034.48096	941.40936	288.19525	-2030.98169	586.39343	345.15036	-2057.81030	531.27264	335.30988	-2101.61157	614.70068	343.49625	-2118.88599	556.20367	333.15054	-2114.21875	467.52777	321.11475	-2108.40015	461.41663	208.99831	-2125.60352	275.14151	327.64197	-2148.76367	235.17616	323.40680	-2179.59399	303.51517	332.70160	-2195.61694	258.03009	327.96927	-2257.48071	105.60223	300.20972	-2268.94824	127.47574	222.68781	-2215.67578	51.18050	263.00427	-2405.75781	112.13554	316.43317	-2419.42334	149.59125	264.39661	-2406.73364	125.80350	223.89418	-1840.54895	992.74152	173.47137	-1999.80017	948.47705	82.28691	-1770.72534	615.48969	98.53052	-1753.30273	556.83850	114.81474	-1825.25000	595.33386	68.80261	-1815.12646	534.41797	76.63641	-1788.08533	465.57593	97.00076	-1797.69739	485.12097	208.97650	-1623.18140	339.13895	100.12833	-1604.30994	296.08237	103.96533	-1675.18018	306.84836	89.71723	-1649.29529	272.14069	94.31660	-1570.93384	138.86983	124.17836	-1583.79211	136.42720	204.28922	-1487.40503	118.58005	158.47905	-1678.18384	48.33527	200.55862	-1707.88049	53.43629	161.80957	-1650.15625	40.04267	96.49025
1760	7.03600	-1859.36597	990.85223	283.53656	-2041.61243	941.50409	288.84070	-2038.10815	586.47449	345.53937	-2064.68335	531.17554	335.24481	-2108.70679	614.59454	343.49426	-2125.93359	556.08453	332.94357	-2120.03955	466.64310	321.12149	-2114.34546	460.85062	209.59135	-2128.36035	274.08493	328.27106	-2151.71191	233.61084	323.46945	-2183.23364	301.85144	332.73904	-2198.94409	256.30606	327.98636	-2260.44946	104.43850	300.07150	-2271.60425	126.30424	222.51596	-2217.27319	51.67223	262.76331	-2408.28003	108.40192	316.08917	-2423.85107	145.48782	264.13116	-2409.56372	122.40244	223.56482	-1847.32312	992.00372	173.71654	-2006.75476	947.76349	82.85833	-1777.57288	614.76599	98.93635	-1760.44824	556.03741	115.51786	-1832.22424	594.66229	69.13793	-1822.19263	533.75525	76.83296	-1794.80591	464.79535	97.00481	-1805.07214	483.90372	208.92540	-1628.23169	340.42813	100.09132	-1608.73914	297.62076	103.87775	-1679.63940	307.55515	89.51377	-1653.32678	273.16507	94.13665	-1573.11926	140.85060	123.82534	-1586.08813	138.36960	203.83755	-1488.97266	120.96055	158.40068	-1678.54199	48.52415	200.49681	-1708.28772	52.97366	161.68509	-1650.42590	40.27264	96.45123
1761	7.04000	-1865.87012	990.98718	283.53418	-2048.27954	941.25568	289.70731	-2045.08008	586.41760	345.89914	-2071.41528	531.11572	335.33771	-2115.71704	614.35339	343.33307	-2132.48755	555.83716	332.63379	-2125.55737	465.77570	321.17123	-2119.93701	460.25452	210.22002	-2131.98071	272.84454	328.43762	-2154.90234	232.14561	323.36612	-2186.88135	300.60135	332.75726	-2202.44312	254.97026	327.96628	-2263.58496	103.59881	299.94403	-2275.28906	125.03824	222.40747	-2219.04150	52.39568	262.50562	-2411.06128	104.65836	315.65002	-2427.23706	141.87282	263.95770	-2412.73779	118.80743	223.14148	-1854.27747	991.39618	173.92340	-2013.70142	946.99951	83.38557	-1784.70935	613.98212	99.33138	-1767.48767	555.10980	115.79498	-1839.37952	593.95416	69.41086	-1829.32141	533.03912	76.99593	-1801.70312	463.96356	96.98637	-1812.72668	482.80280	208.36519	-1633.88586	342.76978	100.83566	-1613.36890	299.22278	103.75631	-1684.21606	308.34024	88.93430	-1657.77271	273.99942	94.00399	-1575.43188	142.89983	123.46180	-1588.57385	140.31384	203.41458	-1490.54395	123.71206	158.35312	-1678.92627	48.81201	200.39674	-1708.79297	52.59501	161.54018	-1650.68091	40.49235	96.36648
1762	7.04400	-1872.61401	990.75183	283.76611	-2055.21533	941.26154	290.52060	-2051.73877	586.37445	346.14532	-2077.89160	531.02771	335.44717	-2122.58594	614.11987	343.08530	-2139.00610	555.54645	332.34677	-2130.69580	464.96957	321.35556	-2124.75562	459.40704	210.92570	-2136.26099	271.66357	328.15704	-2158.87646	231.42410	322.85873	-2190.69067	299.66757	332.81937	-2206.30151	254.05524	327.93164	-2266.73340	102.80937	299.64526	-2279.17944	124.04617	222.30598	-2220.81836	53.28357	262.06116	-2413.56201	100.90028	315.28021	-2430.92139	138.06084	263.61768	-2415.87769	115.28300	222.57797	-1861.07300	990.86420	173.96268	-2020.84277	946.31360	83.96379	-1791.96472	613.17529	99.70246	-1774.95471	554.17285	116.18243	-1846.62317	593.24652	69.75399	-1836.62573	532.28253	77.24490	-1808.72498	463.09180	96.93669	-1820.39612	481.71503	208.04738	-1639.23694	344.26682	100.79148	-1618.07007	300.94443	103.59592	-1689.07288	309.09512	88.76881	-1661.93298	275.41443	93.70013	-1578.18494	144.95903	123.25391	-1591.20447	142.40733	202.96176	-1492.44177	126.63889	158.26729	-1679.38892	49.10910	200.25716	-1709.32825	52.19075	161.41989	-1650.98108	40.72285	96.29323
1763	7.04800	-1879.29858	990.68408	283.93817	-2062.63257	941.72449	291.21713	-2058.22070	586.42236	346.70068	-2084.01660	530.97461	335.88586	-2129.19092	613.69995	342.77612	-2145.79321	555.34772	332.57416	-2135.26660	464.16742	321.81497	-2128.90088	458.48599	211.56923	-2140.31274	270.95541	328.03903	-2163.14795	230.69821	323.14221	-2194.69800	299.03409	333.00186	-2210.40894	253.52614	327.86234	-2269.84399	101.97164	299.42917	-2282.88721	123.08795	222.19673	-2222.52710	54.08381	261.76184	-2416.12207	97.08602	314.88303	-2434.38208	133.95154	263.20633	-2418.88354	111.41810	222.13663	-1868.02356	990.45288	174.16010	-2027.79724	945.66852	84.55106	-1799.27661	612.36102	100.21535	-1782.60547	553.34692	116.18761	-1853.99121	592.56470	70.12395	-1844.15540	531.57294	77.44296	-1816.48657	462.15891	97.13008	-1828.16284	480.58521	207.83073	-1644.79565	345.86801	100.71828	-1623.00366	302.68881	103.55463	-1694.00916	309.99612	88.54308	-1666.51221	276.65015	93.54946	-1580.86035	147.17555	122.84228	-1594.02734	144.55865	202.46852	-1494.57532	129.95058	158.21571	-1680.04736	49.37514	200.08597	-1709.73816	51.82110	161.32674	-1651.32898	41.00901	96.22086
1764	7.05200	-1886.15149	990.76935	284.13058	-2069.26904	941.70630	292.16937	-2064.44751	586.64703	347.18707	-2089.56372	530.90143	336.22534	-2134.95825	613.62036	343.35773	-2150.68945	554.64703	331.93088	-2139.54419	463.55414	322.56369	-2132.26904	457.59174	212.09695	-2143.77759	270.66354	328.10934	-2167.20703	230.36191	322.23987	-2198.92944	298.63077	333.24469	-2214.61499	253.12193	327.89606	-2270.79761	101.99325	298.81467	-2286.18311	122.05293	222.04607	-2223.99609	54.86973	261.48163	-2418.31812	93.45996	314.44550	-2437.71875	129.89105	262.73593	-2421.69604	107.35396	221.56126	-1874.94006	990.06561	174.26294	-2034.95728	945.18042	85.08244	-1806.80298	611.61261	100.57543	-1790.42004	552.44812	116.35046	-1861.37988	591.92010	70.44353	-1851.48718	530.86023	77.45968	-1823.88403	461.33508	96.95271	-1836.07764	479.44278	207.57190	-1650.53320	347.48291	100.68530	-1628.09888	304.56995	103.41538	-1699.28992	310.97183	88.40930	-1671.24524	277.98505	93.34901	-1583.72095	149.50310	122.43194	-1597.16113	146.80424	201.63063	-1497.07422	133.53531	158.23888	-1680.76050	49.52925	199.87761	0.00000	0.00000	0.00000	-1651.72717	41.38087	96.13634
